PathFileType	4	(X/Y/Z)	Kaydara	
DataRate	CameraRate	NumFrames	NumMarkers	Units	OrigDataRate	OrigDataStartFrame	OrigNumFrames	
60.00	60.00	4	74	mm	60.00	1352	200	
Frame#	Time	Z_lasi			Z_rasi			Z_rpsi			Z_lpsi			Z_fneck			Z_bneck			Z_fhead			Z_rhead			Z_lhead			Z_rshld			Z_relbtop			Z_relbext			Z_relblow			Z_rwrext			Z_rwrtop			Z_rwrlow			Z_lshld			Z_lelbext			Z_lelblow			Z_lelbtop			Z_lwrext			Z_lwrtop			Z_lwrlow			Z_rtopleg			Z_ltopleg			Z_rkneefr			Z_rkneebk			Z_rkneeis			Z_lkneefr			Z_lknssbk			Z_lkneeis			Z_rankfr			Z_rankis			Z_rankbk			Z_lankfr			Z_lankbk			Z_lankis			A_lasi			A_rasi			A_rpsi			A_lpsi			A_fneck			A_bneck			A_fhead			A_rhead			A_lhead			A_rshld			A_relbtop			A_relbext			A_relblow			A_rwrext			A_rwrtop			A_rwrlow			A_lshld			A_lelbext			A_lelblow			A_lelbtop			A_lwrext			A_lwrtop			A_lwrlow			A_rtopleg			A_ltopleg			A_rkneefr			A_rkneebk			A_rkneeis			A_lkneefr			A_lknssbk			A_lkneeis			A_rankfr			A_rankis			A_rankbk			A_lankfr			A_lankbk			A_lankis			
		X1	Y1	Z1	X2	Y2	Z2	X3	Y3	Z3	X4	Y4	Z4	X5	Y5	Z5	X6	Y6	Z6	X7	Y7	Z7	X8	Y8	Z8	X9	Y9	Z9	X10	Y10	Z10	X11	Y11	Z11	X12	Y12	Z12	X13	Y13	Z13	X14	Y14	Z14	X15	Y15	Z15	X16	Y16	Z16	X17	Y17	Z17	X18	Y18	Z18	X19	Y19	Z19	X20	Y20	Z20	X21	Y21	Z21	X22	Y22	Z22	X23	Y23	Z23	X24	Y24	Z24	X25	Y25	Z25	X26	Y26	Z26	X27	Y27	Z27	X28	Y28	Z28	X29	Y29	Z29	X30	Y30	Z30	X31	Y31	Z31	X32	Y32	Z32	X33	Y33	Z33	X34	Y34	Z34	X35	Y35	Z35	X36	Y36	Z36	X37	Y37	Z37	X38	Y38	Z38	X39	Y39	Z39	X40	Y40	Z40	X41	Y41	Z41	X42	Y42	Z42	X43	Y43	Z43	X44	Y44	Z44	X45	Y45	Z45	X46	Y46	Z46	X47	Y47	Z47	X48	Y48	Z48	X49	Y49	Z49	X50	Y50	Z50	X51	Y51	Z51	X52	Y52	Z52	X53	Y53	Z53	X54	Y54	Z54	X55	Y55	Z55	X56	Y56	Z56	X57	Y57	Z57	X58	Y58	Z58	X59	Y59	Z59	X60	Y60	Z60	X61	Y61	Z61	X62	Y62	Z62	X63	Y63	Z63	X64	Y64	Z64	X65	Y65	Z65	X66	Y66	Z66	X67	Y67	Z67	X68	Y68	Z68	X69	Y69	Z69	X70	Y70	Z70	X71	Y71	Z71	X72	Y72	Z72	X73	Y73	Z73	X74	Y74	Z74	

151	22.517	-235.46394	1078.57582	693.75519	-287.69720	1088.20175	494.12464	-117.28937	1112.21802	413.28857	-46.98234	1096.57043	647.01004	-229.08682	1444.98993	575.29255	-123.00122	1513.31024	584.47395	-322.90134	1635.60425	514.77455	-155.55815	1651.57867	509.09630	-213.69255	1646.38336	645.25246	-174.92975	1439.45084	371.89205	-142.72619	1120.38376	286.58213	-116.74623	1102.41043	339.60751	-208.83335	1130.45761	325.44960	-241.71137	893.52341	289.44901	-274.22922	906.77208	319.31299	-250.12918	900.76271	354.74434	-113.96116	1439.65424	762.59605	-79.47503	1120.10597	760.76653	-143.87377	1138.62953	821.26358	-75.31831	1136.80679	830.41618	-206.67675	881.76674	796.73721	-198.43756	873.75107	842.77557	-152.15665	870.06012	837.01363	-169.14072	924.74350	364.53423	-147.47841	892.45560	729.02130	-241.15572	421.70532	410.86468	-172.62989	452.15649	356.36486	-181.07393	428.94997	479.66770	-197.48039	444.54945	687.06306	-92.12700	470.64949	672.54929	-188.62581	441.55373	594.31847	-202.63151	180.91156	376.95759	-179.90889	174.75342	439.34406	-126.12871	172.95164	370.48840	-129.47828	162.13673	677.45667	-73.26110	166.18818	618.77766	-152.56717	172.72991	609.14684	-963.51540	1030.93712	486.14052	-958.20175	1037.74551	646.11992	-1118.18398	1040.27992	660.14297	-1087.16064	1043.82706	479.06017	-1033.29773	1381.52267	576.87336	-1169.73511	1420.32181	566.62231	-966.84258	1580.60043	596.02867	-1119.75052	1560.57770	672.45285	-1112.37061	1571.78482	509.30012	-1124.36058	1349.64905	749.88754	-1127.97630	1056.78604	782.77191	-1184.28894	1053.59619	750.46333	-1116.17676	1045.57884	726.06461	-1124.48257	810.56595	809.25034	-1079.33334	817.37854	805.57365	-1078.83873	817.20093	765.38727	-1069.78539	1357.33292	396.14128	-1119.45541	1051.55968	369.77642	-1048.58299	1053.52211	382.71420	-1080.66200	1056.68198	339.02748	-1048.05908	824.88602	357.24236	-1059.44725	829.46175	315.40136	-1013.94241	835.01045	316.87149	-1071.66542	876.07643	743.57010	-1026.16722	890.20615	406.44253	-1030.96825	450.39417	649.32259	-1138.79051	485.71861	694.30161	-1117.94228	486.05736	576.14098	-1012.71515	461.89659	516.36829	-1095.45021	480.48519	418.70182	-1120.60219	478.24440	542.69348	-1100.53635	165.52696	667.41928	-1133.45154	163.16187	601.48399	-1181.90750	153.02371	670.43610	-1067.20093	166.47270	459.29138	-1127.66380	168.68399	422.90016	-1127.63573	172.90485	512.33898 
152	22.533	-235.88722	1078.43658	694.14780	-287.58821	1088.31459	494.39564	-116.85795	1112.24419	414.00421	-47.50686	1096.37604	647.96539	-229.45820	1444.50241	574.09649	-124.61217	1513.11417	588.28640	-319.06841	1635.58640	506.20186	-152.00334	1652.19925	516.73321	-222.90174	1643.55682	647.34024	-174.32405	1439.63913	373.11676	-142.37332	1120.55824	287.35453	-116.64374	1102.47696	340.51243	-208.39504	1130.63339	326.16058	-241.61749	893.92593	289.76278	-274.18831	907.09305	319.76252	-250.09138	900.99869	355.20069	-114.50343	1439.07608	764.13055	-79.82847	1119.53934	761.80031	-144.21636	1138.01086	822.06200	-75.86584	1136.07269	831.35406	-207.29124	881.18248	796.77628	-199.08745	873.09418	842.57294	-152.85243	869.27834	837.07077	-168.87028	924.82574	364.90318	-148.15560	892.23434	729.46060	-241.06987	421.71661	411.06651	-172.41621	452.24052	356.48220	-181.08225	428.92544	479.77234	-197.98010	444.43649	687.10716	-92.71566	470.54104	672.88879	-188.86900	441.48968	594.26891	-202.56449	180.98938	376.90338	-179.93568	174.77402	439.31526	-126.04025	172.99690	370.50728	-129.85230	161.98540	677.32552	-73.50826	166.12995	618.78380	-152.70906	172.33763	608.46272	-964.02916	1031.08215	486.23394	-958.35770	1037.69333	646.06606	-1118.46062	1040.17479	660.42870	-1087.47917	1043.89671	479.11469	-1033.45406	1381.67343	577.20181	-1170.01167	1420.06760	567.19456	-967.47635	1581.10504	595.78671	-1120.23010	1560.86197	672.45888	-1112.98859	1571.55685	509.25323	-1123.84148	1349.74838	750.51071	-1127.61467	1057.11266	783.52219	-1184.49509	1053.88100	751.92635	-1116.43524	1045.79529	726.91574	-1122.43195	810.79269	809.44427	-1077.22328	818.00072	804.60869	-1077.63100	817.96097	764.77798	-1070.47203	1357.41531	396.73336	-1117.92816	1051.41693	367.53296	-1047.02515	1054.06197	381.67366	-1078.50090	1057.15912	337.52125	-1043.45535	825.47234	355.30743	-1053.36296	830.44777	313.18253	-1008.13896	836.66176	316.50774	-1071.84341	876.05629	743.58475	-1026.77162	890.19394	406.41762	-1031.14143	450.36110	649.28070	-1138.97034	485.66975	694.23431	-1118.17627	485.99545	576.05793	-1012.65175	461.94145	516.50043	-1095.48737	480.44384	418.91136	-1120.50270	478.19195	542.90558	-1100.54588	165.51647	667.31674	-1133.50586	163.11337	601.42521	-1181.99150	152.94167	670.39871	-1067.15759	166.42679	459.32945	-1127.70439	168.68969	423.01117	-1127.55409	172.85570	512.44347 
153	22.550	-236.41375	1078.31047	694.59656	-287.43507	1088.39828	494.67682	-116.47531	1112.26578	414.82883	-47.79828	1096.08719	648.98277	-229.98020	1443.95508	572.71496	-126.16999	1512.99332	592.05254	-314.47453	1635.66345	497.70130	-149.12493	1652.79053	524.80396	-232.59459	1640.75623	647.38739	-173.68057	1439.80637	374.38457	-141.91609	1120.75928	288.13944	-116.17209	1102.58720	341.26156	-208.05300	1130.99876	326.87836	-241.42269	894.18259	290.35107	-274.04348	907.36488	320.26653	-249.90368	901.30180	355.66536	-115.45573	1438.38272	765.66681	-80.25204	1118.94386	762.90573	-144.92792	1137.19353	822.83058	-76.54153	1135.32227	832.51060	-207.98315	880.68520	796.56433	-199.81672	872.30705	842.41859	-153.83257	868.48106	837.37587	-168.57571	924.85039	365.44456	-148.83199	892.06314	729.93309	-241.01025	421.72039	411.31191	-172.25639	452.29397	356.66649	-181.08498	428.88546	479.93725	-198.53645	444.19876	687.14241	-93.13036	470.39017	673.10898	-189.11783	441.41220	594.23340	-202.51888	181.03708	376.93047	-179.90665	174.77314	439.34372	-125.97621	173.00640	370.58243	-130.22199	161.85965	677.15706	-73.73612	166.09219	618.86806	-152.84414	172.23083	608.35491	-964.66270	1031.17737	486.55136	-958.80066	1037.52174	646.26511	-1118.71490	1040.13344	660.71121	-1087.93472	1043.95187	479.32526	-1033.53607	1381.80389	577.49542	-1170.21034	1419.75342	567.69974	-967.98340	1581.63834	595.69111	-1120.60036	1561.06720	672.47940	-1113.56438	1571.25412	509.35787	-1123.41515	1350.03632	751.02440	-1127.36382	1057.32239	784.13177	-1184.43306	1053.99521	753.01933	-1116.70799	1045.99663	727.39685	-1120.52887	811.13991	809.48532	-1075.27641	818.63182	803.88039	-1076.45401	818.49297	764.01482	-1070.99251	1357.53830	397.17854	-1116.41624	1051.19751	365.94749	-1045.56198	1054.68025	380.92014	-1076.65001	1057.63771	336.52752	-1038.37715	826.23489	353.89565	-1047.49268	831.46385	311.64963	-1002.48940	838.39745	316.25595	-1072.03903	876.02737	743.60168	-1027.28096	890.23697	406.35288	-1031.32042	450.30914	649.30168	-1139.16626	485.59841	694.24538	-1118.37105	485.94189	576.05530	-1012.39395	461.99577	516.39034	-1095.47569	480.41172	419.04320	-1120.16548	478.05431	542.95292	-1100.61096	165.45057	667.29637	-1133.58902	163.05470	601.42918	-1182.03667	152.85614	670.37689	-1067.16812	166.36988	459.37172	-1127.71835	168.67939	423.06084	-1127.52533	172.81891	512.51408 
154	22.567	-236.85923	1078.08456	695.00473	-287.27642	1088.49709	494.91184	-115.95349	1112.26646	415.67173	-48.12413	1095.85899	649.98466	-230.20166	1443.36044	571.22284	-128.12648	1512.93198	595.81982	-309.16882	1635.77301	489.71176	-147.46435	1653.32642	533.16582	-241.99120	1637.72064	646.21094	-173.00671	1439.94797	375.75878	-141.30415	1120.98679	289.02714	-115.55485	1102.78709	342.06631	-207.41343	1131.11900	327.61269	-241.08818	894.44809	290.89199	-273.73606	907.65648	320.76698	-249.71790	901.55411	356.12499	-116.44335	1437.81143	767.43454	-80.73699	1118.38539	763.93906	-145.83453	1136.38023	823.64342	-77.51459	1134.61487	833.67149	-208.62335	879.92119	796.41029	-200.69958	871.44058	842.25800	-154.60452	867.68936	837.52914	-168.09605	924.88220	365.83099	-149.61838	891.91986	730.49164	-240.98742	421.70513	411.65821	-172.13482	452.33402	356.90163	-180.98694	428.83366	480.06161	-199.11724	443.95199	687.15714	-93.54506	470.29049	673.35007	-189.37923	441.35414	594.27818	-202.46210	181.06565	376.95206	-179.92599	174.75731	439.41261	-125.95219	173.03448	370.67688	-130.50499	161.68079	676.92444	-73.91459	166.06304	618.94909	-152.97922	172.08675	608.18657	-965.15182	1031.14601	486.55197	-959.14070	1037.49268	646.28540	-1119.05106	1040.12856	661.01494	-1088.51120	1043.98727	479.52290	-1033.58688	1381.88324	577.79297	-1170.42740	1419.44702	568.17596	-968.50807	1582.18094	595.38383	-1120.89516	1561.19736	672.45903	-1114.12552	1570.74005	509.62688	-1123.12912	1350.15503	751.58913	-1126.99303	1057.42920	784.39880	-1184.21425	1054.04602	753.61412	-1116.74461	1046.22025	727.58774	-1118.45963	811.31699	809.37447	-1073.25111	819.14505	803.17856	-1074.77859	819.20181	763.51334	-1071.53687	1357.71027	397.72148	-1114.90372	1051.12076	364.96941	-1044.03244	1055.37827	380.36289	-1075.06119	1058.18497	335.87639	-1033.19008	827.18246	353.05695	-1041.78024	832.56508	310.75771	-996.94397	840.29816	316.02859	-1072.22092	876.02692	743.65974	-1027.79091	890.29411	406.30402	-1031.45187	450.28839	649.29634	-1139.29787	485.50667	694.27292	-1118.53683	485.95436	576.08284	-1012.19414	462.05502	516.34186	-1095.49767	480.34851	419.13128	-1120.25131	478.07018	543.10890	-1100.65720	165.39837	667.24442	-1133.64891	163.00198	601.40968	-1182.06337	152.78002	670.35072	-1067.15454	166.33654	459.41032	-1127.73010	168.64616	423.11993	-1127.50832	172.79327	512.56920 
